<svg xmlns="http://www.w3.org/2000/svg" width="72" height="72" viewBox="0 0 72 72" role="img" aria-label="css3"><rect width="72" height="72" rx="14" fill="#202731"/><style>.logo{transform-origin:36px 36px;animation:float 4.0s ease-in-out -0.29s infinite}.edge{animation:edge 4.0s ease-in-out -0.29s infinite}@keyframes float{0%,100%{transform:translateY(3px) rotate(-2deg)}50%{transform:translateY(-4px) rotate(2deg)}}@keyframes edge{0%,100%{opacity:.12}50%{opacity:.55}}@media(prefers-reduced-motion:reduce){.logo,.edge{animation:none}}</style><rect class="edge" x=".75" y=".75" width="70.5" height="70.5" rx="13.5" fill="none" stroke="#9bafc1" stroke-width="1.5"/><g class="logo"><svg x="12" y="12" width="48" height="48" xmlns="http://www.w3.org/2000/svg" viewBox="0 0 128 128"><path fill="#1572B6" d="M18.814 114.123L8.76 1.352h110.48l-10.064 112.754-45.243 12.543-45.119-12.526z"/><path fill="#33A9DC" d="M64.001 117.062l36.559-10.136 8.601-96.354h-45.16v106.49z"/><path fill="#fff" d="M64.001 51.429h18.302l1.264-14.163H64.001V23.435h34.682l-.332 3.711-3.4 38.114h-30.95V51.429z"/><path fill="#EBEBEB" d="M64.083 87.349l-.061.018-15.403-4.159-.985-11.031H33.752l1.937 21.717 28.331 7.863.063-.018v-14.39z"/><path fill="#fff" d="M81.127 64.675l-1.666 18.522-15.426 4.164v14.39l28.354-7.858.208-2.337 2.406-26.881H81.127z"/><path fill="#EBEBEB" d="M64.048 23.435v13.831H30.64l-.277-3.108-.63-7.012-.331-3.711h34.646zm-.047 27.996v13.831H48.792l-.277-3.108-.631-7.012-.33-3.711h16.447z"/></svg></g></svg>
